<?xml version="1.0" encoding="UTF-8"?>
<svg version="1.1" xmlns="http://www.w3.org/2000/svg" width="100" height="100">
<path d="M0 0 C10.06866931 7.25087772 17.72756886 16.79280068 20.3125 29.25 C21.70668558 45.91292143 19.18676434 58.15716957 8.640625 71.33984375 C2.22382219 78.48333577 -8.09918475 84.61508614 -17.80297852 85.42700195 C-34.86566428 85.88895149 -46.79126814 83.44661518 -59.8125 71.75 C-70.07212814 61.14084545 -72.17133125 48.37416494 -71.96484375 34.2578125 C-71.50503107 21.94581333 -64.87448062 11.59167312 -56.171875 3.17578125 C-39.79726859 -9.51711334 -17.57628553 -10.86641977 0 0 Z M-49.6875 37.25 C-49.6875 38.57 -49.6875 39.89 -49.6875 41.25 C-33.8475 41.25 -18.0075 41.25 -1.6875 41.25 C-1.6875 39.93 -1.6875 38.61 -1.6875 37.25 C-17.5275 37.25 -33.3675 37.25 -49.6875 37.25 Z " fill="#000000" transform="translate(75.6875,10.75)"/>
</svg>
