<?xml version="1.0" encoding="UTF-8"?>
<svg version="1.1" xmlns="http://www.w3.org/2000/svg" width="100" height="100">
<path d="M0 0 C26.4 0 52.8 0 80 0 C76.20605469 30.3515625 76.20605469 30.3515625 74.00268555 45.24414062 C73.70413078 47.28285734 73.4126923 49.32262647 73.12768555 51.36328125 C72.70647872 54.37494559 72.26391809 57.3827715 71.81640625 60.390625 C71.6933461 61.3008844 71.57028595 62.2111438 71.4434967 63.14898682 C71.31333664 63.99217468 71.18317657 64.83536255 71.04907227 65.70410156 C70.94264908 66.44001526 70.83622589 67.17592896 70.72657776 67.93414307 C69.71975718 70.79680608 68.3813737 72.13910054 66 74 C63.57177734 74.50793457 63.57177734 74.50793457 60.8359375 74.51757812 C59.29413818 74.53649109 59.29413818 74.53649109 57.72119141 74.55578613 C56.06482666 74.54364075 56.06482666 74.54364075 54.375 74.53125 C52.66642822 74.53699036 52.66642822 74.53699036 50.92333984 74.54284668 C48.51594153 74.54556774 46.10851374 74.5381931 43.70117188 74.52148438 C40.01365318 74.50007925 36.32808301 74.52128132 32.640625 74.546875 C30.30207903 74.54423176 27.96353427 74.53910687 25.625 74.53125 C24.52075684 74.53934692 23.41651367 74.54744385 22.27880859 74.55578613 C21.25094238 74.54317749 20.22307617 74.53056885 19.1640625 74.51757812 C18.26123535 74.51439575 17.3584082 74.51121338 16.42822266 74.50793457 C13.14176959 73.82047573 12.00818519 72.66461098 10 70 C9.18403625 67.30844116 9.18403625 67.30844116 8.7355957 64.19677734 C8.55893875 63.02811127 8.3822818 61.85944519 8.20027161 60.65536499 C8.02718979 59.39495392 7.85410797 58.13454285 7.67578125 56.8359375 C7.48404831 55.53355133 7.29231537 54.23116516 7.09477234 52.88931274 C6.58546472 49.42640067 6.09658272 45.96089331 5.61157227 42.49450684 C5.21574403 39.68929636 4.80595071 36.88621605 4.39524555 34.08315086 C3.54084443 28.2507513 2.6980297 22.41667359 1.8762207 16.57958984 C1.6578228 15.03215591 1.6578228 15.03215591 1.43501282 13.45346069 C0.87137712 8.9788943 0.44875438 4.48754377 0 0 Z M14 7 C12.98102665 10.05692004 12.99536302 11.28861182 13.40551758 14.39208984 C13.51926224 15.27665863 13.6330069 16.16122742 13.75019836 17.07260132 C13.88032822 18.02575226 14.01045807 18.9789032 14.14453125 19.9609375 C14.27437912 20.94365631 14.40422699 21.92637512 14.53800964 22.93887329 C14.81469164 25.01894506 15.09483953 27.09855829 15.37817383 29.17773438 C15.80967702 32.35421884 16.22689751 35.53234835 16.64257812 38.7109375 C16.91320314 40.7318861 17.1846603 42.75272347 17.45703125 44.7734375 C17.58108841 45.72253998 17.70514557 46.67164246 17.83296204 47.64950562 C18.43916175 52.0329636 19.04489739 55.97357685 21 60 C21.99 59.505 21.99 59.505 23 59 C21.5365802 46.01116895 20.0434657 33.02680233 18.375 20.0625 C18.19070435 18.60831665 18.19070435 18.60831665 18.00268555 17.12475586 C17.88578369 16.22893799 17.76888184 15.33312012 17.6484375 14.41015625 C17.49640869 13.23658569 17.49640869 13.23658569 17.34130859 12.03930664 C17.02197677 9.80711122 17.02197677 9.80711122 16 7 C15.34 7 14.68 7 14 7 Z M31 7 C29.67915941 8.08838313 29.67915941 8.08838313 29.96240234 10.74951172 C30.00316895 11.96396973 30.04393555 13.17842773 30.0859375 14.4296875 C30.10685959 15.08804596 30.12778168 15.74640442 30.14933777 16.42471313 C30.21929097 18.57502131 30.29692488 20.72497262 30.375 22.875 C30.42463786 24.33918459 30.47403549 25.80337734 30.52319336 27.26757812 C30.88682799 37.85206167 31.35971033 48.42840891 32 59 C32.99 59 33.98 59 35 59 C35.10909057 48.61215309 35.00734806 38.2550695 34.5625 27.875 C34.52326416 26.92874756 34.48402832 25.98249512 34.44360352 25.00756836 C34.18127057 19.30421848 33.85794579 13.64766965 33 8 C32.34 7.67 31.68 7.34 31 7 Z M48 7 C44.4180847 10.5819153 45.64429715 22.8876643 45.4375 27.875 C45.3950415 28.8657251 45.35258301 29.8564502 45.30883789 30.87719727 C44.93658369 40.25395856 44.90146922 49.61768045 45 59 C45.99 59 46.98 59 48 59 C48.28763203 53.18348357 48.57236152 47.3668347 48.85449219 41.55004883 C48.95071447 39.5744246 49.04770685 37.59883772 49.14550781 35.62329102 C49.28657036 32.77109274 49.42479212 29.91876823 49.5625 27.06640625 C49.60624756 26.19415909 49.64999512 25.32191193 49.69506836 24.42323303 C49.95629676 18.94187155 50.03876495 13.48766352 50 8 C49.34 7.67 48.68 7.34 48 7 Z M64 7 C62.16296082 16.22703592 60.89342218 25.52316638 59.65795898 34.84545898 C59.30986673 37.45725791 58.95088796 40.06742781 58.59179688 42.67773438 C58.3691228 44.34626504 58.14709397 46.01488197 57.92578125 47.68359375 C57.81752518 48.45964462 57.7092691 49.2356955 57.59773254 50.03526306 C57.12912062 53.66011336 56.96933899 56.50002618 58 60 C58.99 59.505 58.99 59.505 60 59 C60.61195972 56.79763614 60.61195972 56.79763614 60.96484375 54.09375 C61.1237207 53.0507373 61.28259766 52.00772461 61.44628906 50.93310547 C61.68943848 49.23371826 61.68943848 49.23371826 61.9375 47.5 C62.10862305 46.34773926 62.27974609 45.19547852 62.45605469 44.00830078 C64.2030917 32.03442795 65.64633024 20.02395609 67 8 C66.01 7.67 65.02 7.34 64 7 Z " fill="#5D5D5D" transform="translate(10,26)"/>
<path d="M0 0 C1.06734375 -0.00257812 2.1346875 -0.00515625 3.234375 -0.0078125 C4.35328125 -0.00007812 5.4721875 0.00765625 6.625 0.015625 C7.74390625 0.00789062 8.8628125 0.00015625 10.015625 -0.0078125 C11.08296875 -0.00523438 12.1503125 -0.00265625 13.25 0 C14.72339844 0.00338379 14.72339844 0.00338379 16.2265625 0.00683594 C18.625 0.265625 18.625 0.265625 20.625 2.265625 C20.75 5.390625 20.75 5.390625 20.625 8.265625 C21.51022339 8.24205933 21.51022339 8.24205933 22.41333008 8.21801758 C25.08795586 8.15564561 27.76242864 8.11662843 30.4375 8.078125 C31.36626953 8.05298828 32.29503906 8.02785156 33.25195312 8.00195312 C34.14462891 7.99228516 35.03730469 7.98261719 35.95703125 7.97265625 C36.77921143 7.9569458 37.6013916 7.94123535 38.44848633 7.92504883 C41.14479943 8.34696209 41.87002041 9.24011867 43.625 11.265625 C45.28448148 12.27750395 46.95080562 13.2782796 48.625 14.265625 C50.625 16.265625 50.625 16.265625 50.625 22.265625 C21.585 22.265625 -7.455 22.265625 -37.375 22.265625 C-37.375 16.265625 -37.375 16.265625 -35.6875 14.078125 C-33.34577106 12.24271583 -30.96053992 10.7330936 -28.375 9.265625 C-28.045 8.935625 -27.715 8.605625 -27.375 8.265625 C-25.8862814 8.17893068 -24.393555 8.15859006 -22.90234375 8.16796875 C-22.00322266 8.17119141 -21.10410156 8.17441406 -20.17773438 8.17773438 C-19.23220703 8.18611328 -18.28667969 8.19449219 -17.3125 8.203125 C-16.36310547 8.20763672 -15.41371094 8.21214844 -14.43554688 8.21679688 C-12.08196935 8.2286239 -9.72851523 8.24510475 -7.375 8.265625 C-7.41625 7.316875 -7.4575 6.368125 -7.5 5.390625 C-7.28153174 -0.0710814 -4.78431441 0.0109876 0 0 Z M-1.375 4.265625 C-2.035 5.585625 -2.695 6.905625 -3.375 8.265625 C3.225 8.265625 9.825 8.265625 16.625 8.265625 C15.965 6.945625 15.305 5.625625 14.625 4.265625 C9.345 4.265625 4.065 4.265625 -1.375 4.265625 Z " fill="#5D5D5D" transform="translate(43.375,-0.265625)"/>
</svg>
